<svg width="257" height="344" viewBox="0 0 257 344" fill="none" xmlns="http://www.w3.org/2000/svg">
<rect width="257" height="344" fill="white"/>
<path d="M129.226 247C127.017 247 125.226 245.209 125.226 243V149C125.226 146.791 127.017 145 129.226 145C131.435 145 133.226 146.791 133.226 149V243C133.226 245.209 131.435 247 129.226 247Z" fill="#3A4D57"/>
<path d="M125.226 243H111.226C110.121 243 109.226 242.105 109.226 241C109.226 239.895 110.121 239 111.226 239H125.226V243Z" fill="#3A4D57"/>
<path d="M125.226 235H113.226C111.017 235 109.226 233.209 109.226 231C109.226 228.791 111.017 227 113.226 227H125.226V235Z" fill="#3A4D57"/>
<path d="M135.226 161H123.226C122.121 161 121.226 160.105 121.226 159C121.226 157.895 122.121 157 123.226 157H135.226C136.331 157 137.226 157.895 137.226 159C137.226 160.105 136.33 161 135.226 161Z" fill="#3A4D57"/>
<path d="M129.226 127C123.712 127 119.226 122.514 119.226 117C119.226 111.486 123.712 107 129.226 107C134.74 107 139.226 111.486 139.226 117C139.226 122.514 134.74 127 129.226 127ZM129.226 111C125.917 111 123.226 113.691 123.226 117C123.226 120.309 125.917 123 129.226 123C132.535 123 135.226 120.309 135.226 117C135.226 113.691 132.534 111 129.226 111Z" fill="#3A4D57"/>
<path d="M129.226 153C109.375 153 93.226 136.851 93.226 117C93.226 97.149 109.375 81 129.226 81C149.077 81 165.226 97.149 165.226 117C165.226 136.851 149.076 153 129.226 153ZM129.226 89C113.787 89 101.226 101.56 101.226 117C101.226 132.44 113.787 145 129.226 145C144.665 145 157.226 132.44 157.226 117C157.226 101.56 144.665 89 129.226 89Z" fill="#3A4D57"/>
<path d="M140.218 104.949C140.218 104.949 140.246 104.856 140.298 104.682C140.344 104.511 140.404 104.259 140.443 103.934C140.479 103.612 140.506 103.206 140.446 102.766C140.43 102.488 140.377 102.266 140.326 102.05C140.266 101.825 140.193 101.559 140.083 101.314C139.689 100.304 138.825 99.283 137.647 98.71C137.061 98.423 136.406 98.25 135.738 98.222L135.235 98.226H135.227C135.348 98.223 135.255 98.226 135.279 98.225L135.259 98.227L135.22 98.231L135.142 98.239L134.985 98.255L134.672 98.287L134.248 98.392C134.091 98.449 133.931 98.489 133.778 98.552C132.546 99.038 131.601 100.067 131.199 101.165C130.992 101.713 130.909 102.273 130.923 102.799L130.925 102.994L130.938 103.259C130.947 103.436 130.956 103.609 130.964 103.781C130.981 104.123 130.998 104.453 131.014 104.771C131.141 107.309 131.226 109.001 131.226 109.001H127.226C127.226 109.001 127.311 107.309 127.438 104.771C127.454 104.454 127.471 104.123 127.488 103.781C127.497 103.61 127.505 103.436 127.514 103.259L127.528 102.99L127.557 102.644C127.633 101.719 127.888 100.755 128.342 99.861C129.234 98.064 130.958 96.591 132.962 96.039C133.21 95.967 133.466 95.924 133.716 95.869C133.985 95.828 134.269 95.802 134.542 95.776L135.239 95.775L135.988 95.847C136.977 95.993 137.91 96.349 138.702 96.845C140.299 97.84 141.306 99.361 141.697 100.754C141.808 101.103 141.868 101.435 141.92 101.775C141.965 102.129 141.99 102.45 141.979 102.689C141.994 103.279 141.91 103.774 141.823 104.18C141.732 104.584 141.625 104.891 141.547 105.097C141.465 105.296 141.421 105.402 141.421 105.402L140.218 104.949Z" fill="#3A4D57"/>
<path d="M141.226 109C143.435 109 145.226 107.209 145.226 105C145.226 102.791 143.435 101 141.226 101C139.017 101 137.226 102.791 137.226 105C137.226 107.209 139.017 109 141.226 109Z" fill="#3A4D57"/>
<path d="M117.031 105.401C117.031 105.401 116.987 105.295 116.905 105.096C116.827 104.89 116.719 104.584 116.629 104.179C116.542 103.774 116.458 103.278 116.473 102.688C116.462 102.449 116.488 102.128 116.532 101.774C116.584 101.434 116.644 101.102 116.755 100.753C117.146 99.36 118.154 97.838 119.75 96.844C120.543 96.348 121.475 95.992 122.464 95.846L123.213 95.774L123.91 95.775C124.183 95.801 124.467 95.827 124.736 95.868C124.986 95.923 125.242 95.967 125.49 96.038C127.494 96.59 129.218 98.062 130.11 99.86C130.564 100.754 130.818 101.718 130.895 102.643L130.924 102.989L130.938 103.258C130.947 103.435 130.956 103.608 130.964 103.78C130.981 104.122 130.998 104.452 131.014 104.77C131.141 107.308 131.226 109 131.226 109H127.226C127.226 109 127.311 107.308 127.438 104.77C127.454 104.453 127.471 104.122 127.488 103.78C127.497 103.609 127.505 103.435 127.514 103.258L127.527 102.993L127.529 102.798C127.543 102.273 127.461 101.713 127.254 101.164C126.851 100.066 125.907 99.037 124.675 98.551C124.522 98.488 124.362 98.448 124.205 98.391L123.781 98.286L123.468 98.254L123.311 98.238L123.233 98.23L123.194 98.226L123.174 98.224C123.198 98.224 123.105 98.222 123.226 98.225H123.218L122.715 98.221C122.047 98.25 121.391 98.422 120.806 98.709C119.628 99.282 118.763 100.302 118.37 101.313C118.26 101.558 118.187 101.824 118.127 102.049C118.076 102.265 118.023 102.487 118.007 102.765C117.947 103.205 117.974 103.61 118.01 103.933C118.049 104.258 118.109 104.51 118.155 104.681C118.207 104.855 118.235 104.948 118.235 104.948L117.031 105.401Z" fill="#3A4D57"/>
<path d="M117.226 109C119.435 109 121.226 107.209 121.226 105C121.226 102.791 119.435 101 117.226 101C115.017 101 113.226 102.791 113.226 105C113.226 107.209 115.017 109 117.226 109Z" fill="#3A4D57"/>
<path d="M167.277 127.992C167.277 127.992 167.37 128.02 167.544 128.072C167.715 128.118 167.967 128.178 168.292 128.217C168.614 128.253 169.02 128.28 169.46 128.22C169.738 128.204 169.96 128.151 170.177 128.1C170.402 128.04 170.668 127.967 170.913 127.857C171.923 127.463 172.944 126.599 173.517 125.421C173.804 124.835 173.977 124.18 174.005 123.512L174.001 123.009V123.001C174.004 123.122 174.001 123.029 174.002 123.053L174 123.033L173.996 122.994L173.988 122.916L173.972 122.759L173.94 122.446L173.835 122.022C173.778 121.865 173.738 121.705 173.675 121.552C173.189 120.32 172.16 119.375 171.062 118.972C170.514 118.765 169.954 118.683 169.428 118.696L169.233 118.698L168.968 118.711C168.791 118.72 168.617 118.729 168.446 118.737C168.104 118.754 167.774 118.771 167.456 118.787C164.918 118.914 163.226 118.999 163.226 118.999V114.999C163.226 114.999 164.918 115.084 167.456 115.211C167.773 115.227 168.104 115.244 168.446 115.261C168.617 115.27 168.791 115.278 168.968 115.287L169.237 115.301L169.582 115.33C170.507 115.406 171.471 115.661 172.365 116.115C174.162 117.007 175.635 118.731 176.187 120.735C176.259 120.983 176.302 121.239 176.357 121.49C176.398 121.759 176.425 122.043 176.45 122.316L176.451 123.013L176.379 123.762C176.233 124.751 175.877 125.684 175.381 126.476C174.386 128.073 172.865 129.08 171.472 129.471C171.123 129.582 170.791 129.642 170.451 129.694C170.097 129.739 169.776 129.764 169.537 129.753C168.947 129.768 168.452 129.684 168.046 129.597C167.642 129.506 167.335 129.399 167.13 129.321C166.931 129.239 166.825 129.195 166.825 129.195L167.277 127.992Z" fill="#3A4D57"/>
<path d="M167.226 133C169.435 133 171.226 131.209 171.226 129C171.226 126.791 169.435 125 167.226 125C165.017 125 163.226 126.791 163.226 129C163.226 131.209 165.017 133 167.226 133Z" fill="#3A4D57"/>
<path d="M166.824 104.805C166.824 104.805 166.93 104.761 167.129 104.679C167.335 104.601 167.641 104.493 168.045 104.403C168.45 104.316 168.946 104.232 169.536 104.247C169.775 104.236 170.096 104.262 170.45 104.306C170.79 104.358 171.122 104.418 171.471 104.529C172.864 104.92 174.385 105.928 175.38 107.524C175.876 108.317 176.232 109.249 176.378 110.238L176.45 110.987L176.449 111.684C176.423 111.957 176.397 112.241 176.356 112.51C176.301 112.761 176.257 113.016 176.186 113.265C175.634 115.268 174.162 116.993 172.364 117.885C171.47 118.339 170.506 118.593 169.581 118.67L169.236 118.699L168.967 118.713C168.79 118.722 168.616 118.731 168.445 118.739C168.103 118.756 167.773 118.773 167.455 118.789C164.917 118.916 163.225 119.001 163.225 119.001V115.001C163.225 115.001 164.917 115.086 167.455 115.213C167.772 115.229 168.103 115.246 168.445 115.263C168.616 115.272 168.79 115.28 168.967 115.289L169.232 115.302L169.427 115.304C169.953 115.318 170.512 115.236 171.061 115.028C172.159 114.625 173.188 113.681 173.674 112.448C173.737 112.296 173.777 112.135 173.834 111.978L173.939 111.554L173.971 111.241L173.987 111.084L173.995 111.006L173.999 110.967L174.001 110.947C174.001 110.972 174.003 110.878 174 110.999V110.991L174.004 110.488C173.975 109.82 173.803 109.165 173.516 108.579C172.943 107.401 171.923 106.536 170.912 106.143C170.667 106.033 170.401 105.96 170.176 105.9C169.96 105.849 169.737 105.796 169.459 105.78C169.019 105.72 168.614 105.747 168.291 105.783C167.966 105.822 167.714 105.882 167.543 105.928C167.369 105.98 167.276 106.008 167.276 106.008L166.824 104.805Z" fill="#3A4D57"/>
<path d="M167.226 109C169.435 109 171.226 107.209 171.226 105C171.226 102.791 169.435 101 167.226 101C165.017 101 163.226 102.791 163.226 105C163.226 107.209 165.017 109 167.226 109Z" fill="#3A4D57"/>
<path d="M91.627 129.195C91.627 129.195 91.521 129.239 91.322 129.321C91.116 129.399 90.81 129.507 90.405 129.597C89.999 129.684 89.504 129.768 88.914 129.753C88.675 129.764 88.354 129.738 88 129.694C87.66 129.642 87.328 129.582 86.979 129.471C85.586 129.08 84.064 128.072 83.07 126.476C82.574 125.683 82.218 124.751 82.072 123.762L82 123.013L82.001 122.316C82.027 122.043 82.053 121.759 82.094 121.49C82.149 121.239 82.193 120.984 82.264 120.735C82.816 118.732 84.289 117.007 86.086 116.115C86.98 115.661 87.944 115.407 88.869 115.33L89.215 115.301L89.484 115.287C89.66 115.278 89.834 115.269 90.005 115.261C90.347 115.244 90.677 115.227 90.995 115.211C93.533 115.084 95.225 114.999 95.225 114.999V118.999C95.225 118.999 93.533 118.914 90.995 118.787C90.678 118.771 90.347 118.754 90.005 118.737C89.834 118.728 89.66 118.72 89.484 118.711L89.219 118.698L89.024 118.696C88.499 118.682 87.939 118.764 87.39 118.972C86.292 119.375 85.263 120.319 84.777 121.552C84.714 121.704 84.674 121.865 84.617 122.022L84.512 122.446L84.48 122.759L84.464 122.916L84.456 122.994L84.452 123.033L84.45 123.053C84.45 123.028 84.448 123.122 84.451 123.001V123.009L84.447 123.512C84.476 124.18 84.648 124.835 84.935 125.421C85.508 126.599 86.528 127.464 87.539 127.857C87.784 127.967 88.05 128.04 88.275 128.1C88.491 128.151 88.713 128.204 88.991 128.22C89.431 128.28 89.836 128.253 90.159 128.217C90.484 128.178 90.736 128.118 90.907 128.072C91.081 128.02 91.174 127.992 91.174 127.992L91.627 129.195Z" fill="#3A4D57"/>
<path d="M91.226 133C93.4352 133 95.226 131.209 95.226 129C95.226 126.791 93.4352 125 91.226 125C89.0169 125 87.226 126.791 87.226 129C87.226 131.209 89.0169 133 91.226 133Z" fill="#3A4D57"/>
<path d="M91.175 106.008C91.175 106.008 91.082 105.98 90.908 105.928C90.738 105.882 90.485 105.822 90.16 105.783C89.838 105.747 89.432 105.72 88.992 105.78C88.714 105.796 88.492 105.849 88.276 105.9C88.051 105.96 87.785 106.033 87.54 106.143C86.53 106.537 85.509 107.401 84.936 108.579C84.649 109.165 84.477 109.82 84.448 110.488L84.452 110.991V110.999C84.449 110.878 84.452 110.971 84.451 110.947L84.453 110.967L84.457 111.006L84.465 111.084L84.481 111.241L84.513 111.554L84.618 111.978C84.675 112.135 84.715 112.295 84.778 112.448C85.264 113.68 86.293 114.625 87.391 115.028C87.939 115.235 88.499 115.317 89.025 115.304L89.22 115.302L89.485 115.289C89.661 115.28 89.835 115.271 90.006 115.263C90.348 115.246 90.678 115.229 90.996 115.213C93.534 115.086 95.226 115.001 95.226 115.001V119.001C95.226 119.001 93.534 118.916 90.996 118.789C90.679 118.773 90.348 118.756 90.006 118.739C89.835 118.73 89.661 118.722 89.485 118.713L89.216 118.699L88.87 118.67C87.945 118.594 86.981 118.339 86.087 117.885C84.29 116.993 82.818 115.269 82.265 113.265C82.193 113.017 82.15 112.761 82.095 112.51C82.054 112.241 82.028 111.957 82.002 111.684L82.001 110.987L82.073 110.238C82.219 109.249 82.575 108.316 83.071 107.524C84.066 105.927 85.587 104.92 86.98 104.529C87.329 104.418 87.661 104.358 88.001 104.306C88.355 104.261 88.676 104.236 88.915 104.247C89.505 104.232 90 104.316 90.406 104.403C90.81 104.494 91.117 104.601 91.323 104.679C91.522 104.761 91.628 104.805 91.628 104.805L91.175 106.008Z" fill="#3A4D57"/>
<path d="M91.226 109C93.4352 109 95.226 107.209 95.226 105C95.226 102.791 93.4352 101 91.226 101C89.0169 101 87.226 102.791 87.226 105C87.226 107.209 89.0169 109 91.226 109Z" fill="#3A4D57"/>
<path d="M141.42 128.599C141.42 128.599 141.464 128.705 141.546 128.904C141.624 129.11 141.732 129.416 141.822 129.821C141.909 130.226 141.993 130.722 141.978 131.312C141.989 131.551 141.963 131.872 141.919 132.226C141.867 132.566 141.807 132.898 141.696 133.247C141.305 134.64 140.297 136.162 138.701 137.156C137.909 137.652 136.976 138.008 135.987 138.154L135.238 138.226L134.541 138.225C134.268 138.199 133.984 138.173 133.715 138.132C133.464 138.077 133.209 138.033 132.961 137.962C130.957 137.41 129.233 135.938 128.341 134.14C127.887 133.246 127.632 132.282 127.556 131.357L127.527 131.011L127.513 130.742C127.504 130.565 127.495 130.392 127.487 130.22C127.47 129.878 127.453 129.548 127.437 129.23C127.31 126.692 127.225 125 127.225 125H131.225C131.225 125 131.14 126.692 131.013 129.23C130.997 129.547 130.98 129.878 130.963 130.22C130.954 130.391 130.946 130.565 130.937 130.742L130.924 131.007L130.922 131.202C130.908 131.727 130.99 132.287 131.198 132.836C131.601 133.934 132.545 134.963 133.777 135.449C133.929 135.512 134.09 135.552 134.247 135.609L134.671 135.714L134.984 135.746L135.141 135.762L135.219 135.77L135.258 135.774L135.278 135.776C135.254 135.776 135.347 135.778 135.226 135.775H135.234L135.737 135.779C136.405 135.75 137.061 135.578 137.646 135.291C138.824 134.718 139.688 133.698 140.082 132.687C140.192 132.442 140.265 132.176 140.325 131.951C140.376 131.735 140.429 131.513 140.445 131.235C140.505 130.795 140.478 130.39 140.442 130.067C140.403 129.742 140.343 129.49 140.297 129.319C140.245 129.145 140.217 129.052 140.217 129.052L141.42 128.599Z" fill="#3A4D57"/>
<path d="M141.226 133C143.435 133 145.226 131.209 145.226 129C145.226 126.791 143.435 125 141.226 125C139.017 125 137.226 126.791 137.226 129C137.226 131.209 139.017 133 141.226 133Z" fill="#3A4D57"/>
<path d="M118.233 129.051C118.233 129.051 118.205 129.144 118.153 129.318C118.107 129.489 118.047 129.741 118.008 130.066C117.972 130.388 117.945 130.794 118.005 131.234C118.021 131.512 118.074 131.734 118.125 131.95C118.185 132.175 118.258 132.441 118.368 132.686C118.762 133.696 119.626 134.717 120.804 135.29C121.39 135.577 122.045 135.75 122.713 135.778L123.216 135.774H123.224C123.103 135.777 123.196 135.774 123.172 135.775L123.192 135.773L123.231 135.769L123.309 135.761L123.466 135.745L123.779 135.713L124.203 135.608C124.36 135.551 124.52 135.511 124.673 135.448C125.905 134.962 126.85 133.933 127.252 132.835C127.459 132.287 127.541 131.727 127.527 131.201L127.525 131.006L127.512 130.741C127.503 130.564 127.494 130.391 127.486 130.219C127.469 129.877 127.452 129.547 127.436 129.229C127.309 126.691 127.224 124.999 127.224 124.999H131.224C131.224 124.999 131.139 126.691 131.012 129.229C130.996 129.546 130.979 129.877 130.962 130.219C130.953 130.39 130.945 130.564 130.936 130.741L130.922 131.01L130.893 131.356C130.817 132.281 130.562 133.245 130.108 134.139C129.216 135.936 127.492 137.409 125.488 137.961C125.24 138.033 124.984 138.076 124.734 138.131C124.465 138.172 124.181 138.198 123.908 138.224L123.211 138.225L122.462 138.153C121.473 138.007 120.541 137.651 119.748 137.155C118.152 136.16 117.144 134.639 116.753 133.246C116.642 132.897 116.582 132.565 116.53 132.225C116.485 131.871 116.46 131.55 116.471 131.311C116.456 130.721 116.54 130.226 116.627 129.82C116.718 129.416 116.825 129.109 116.903 128.903C116.985 128.704 117.029 128.598 117.029 128.598L118.233 129.051Z" fill="#3A4D57"/>
<path d="M117.226 133C119.435 133 121.226 131.209 121.226 129C121.226 126.791 119.435 125 117.226 125C115.017 125 113.226 126.791 113.226 129C113.226 131.209 115.017 133 117.226 133Z" fill="#3A4D57"/>
<path d="M145.226 121C143.017 121 141.226 119.209 141.226 117C141.226 114.791 143.017 113 145.226 113C147.435 113 149.226 114.791 149.226 117C149.226 119.209 147.435 121 145.226 121Z" fill="#3A4D57"/>
<path d="M113.226 121C111.017 121 109.226 119.209 109.226 117C109.226 114.791 111.017 113 113.226 113C115.435 113 117.226 114.791 117.226 117C117.226 119.209 115.435 121 113.226 121Z" fill="#3A4D57"/>
<path d="M129.226 181C133.644 181 137.226 177.418 137.226 173C137.226 168.582 133.644 165 129.226 165C124.808 165 121.226 168.582 121.226 173C121.226 177.418 124.808 181 129.226 181Z" fill="#3A4D57"/>
<path d="M125.226 223H119.226C118.121 223 117.226 222.105 117.226 221C117.226 219.895 118.121 219 119.226 219H125.226V223Z" fill="#3A4D57"/>
</svg>
