<svg width="95" height="166" viewBox="0 0 95 166" fill="none" xmlns="http://www.w3.org/2000/svg">
<path d="M47.226 166C45.017 166 43.226 164.209 43.226 162V68C43.226 65.791 45.017 64 47.226 64C49.435 64 51.226 65.791 51.226 68V162C51.226 164.209 49.435 166 47.226 166Z" fill="#3A4D57"/>
<path d="M43.226 162H29.226C28.121 162 27.226 161.105 27.226 160C27.226 158.895 28.121 158 29.226 158H43.226V162Z" fill="#3A4D57"/>
<path d="M43.226 154H31.226C29.017 154 27.226 152.209 27.226 150C27.226 147.791 29.017 146 31.226 146H43.226V154Z" fill="#3A4D57"/>
<path d="M53.226 80H41.226C40.121 80 39.226 79.105 39.226 78C39.226 76.895 40.121 76 41.226 76H53.226C54.331 76 55.226 76.895 55.226 78C55.226 79.105 54.33 80 53.226 80Z" fill="#3A4D57"/>
<path d="M47.226 46C41.712 46 37.226 41.514 37.226 36C37.226 30.486 41.712 26 47.226 26C52.74 26 57.226 30.486 57.226 36C57.226 41.514 52.74 46 47.226 46ZM47.226 30C43.917 30 41.226 32.691 41.226 36C41.226 39.309 43.917 42 47.226 42C50.535 42 53.226 39.309 53.226 36C53.226 32.691 50.534 30 47.226 30Z" fill="#3A4D57"/>
<path d="M47.226 72C27.375 72 11.226 55.851 11.226 36C11.226 16.149 27.375 0 47.226 0C67.077 0 83.226 16.149 83.226 36C83.226 55.851 67.076 72 47.226 72ZM47.226 8C31.787 8 19.226 20.56 19.226 36C19.226 51.44 31.787 64 47.226 64C62.665 64 75.226 51.44 75.226 36C75.226 20.56 62.665 8 47.226 8Z" fill="#3A4D57"/>
<path d="M58.218 23.949C58.218 23.949 58.246 23.856 58.298 23.682C58.344 23.511 58.404 23.259 58.443 22.934C58.479 22.612 58.506 22.206 58.446 21.766C58.43 21.488 58.377 21.266 58.326 21.05C58.266 20.825 58.193 20.559 58.083 20.314C57.689 19.304 56.825 18.283 55.647 17.71C55.061 17.423 54.406 17.25 53.738 17.222L53.235 17.226H53.227C53.348 17.223 53.255 17.226 53.279 17.225L53.259 17.227L53.22 17.231L53.142 17.239L52.985 17.255L52.672 17.287L52.248 17.392C52.091 17.449 51.931 17.489 51.778 17.552C50.546 18.038 49.601 19.067 49.199 20.165C48.992 20.713 48.909 21.273 48.923 21.799L48.925 21.994L48.938 22.259C48.947 22.436 48.956 22.609 48.964 22.781C48.981 23.123 48.998 23.453 49.014 23.771C49.141 26.309 49.226 28.001 49.226 28.001H45.226C45.226 28.001 45.311 26.309 45.438 23.771C45.454 23.454 45.471 23.123 45.488 22.781C45.497 22.61 45.505 22.436 45.514 22.259L45.528 21.99L45.557 21.644C45.633 20.719 45.888 19.755 46.342 18.861C47.234 17.064 48.958 15.591 50.962 15.039C51.21 14.967 51.466 14.924 51.716 14.869C51.985 14.828 52.269 14.802 52.542 14.776L53.239 14.775L53.988 14.847C54.977 14.993 55.91 15.349 56.702 15.845C58.299 16.84 59.306 18.361 59.697 19.754C59.808 20.103 59.868 20.435 59.92 20.775C59.965 21.129 59.99 21.45 59.979 21.689C59.994 22.279 59.91 22.774 59.823 23.18C59.732 23.584 59.625 23.891 59.547 24.097C59.465 24.296 59.421 24.402 59.421 24.402L58.218 23.949Z" fill="#3A4D57"/>
<path d="M59.226 28C61.4352 28 63.226 26.2091 63.226 24C63.226 21.7909 61.4352 20 59.226 20C57.0169 20 55.226 21.7909 55.226 24C55.226 26.2091 57.0169 28 59.226 28Z" fill="#3A4D57"/>
<path d="M35.031 24.401C35.031 24.401 34.987 24.295 34.905 24.096C34.827 23.89 34.719 23.584 34.629 23.179C34.542 22.774 34.458 22.278 34.473 21.688C34.462 21.449 34.488 21.128 34.532 20.774C34.584 20.434 34.644 20.102 34.755 19.753C35.146 18.36 36.154 16.838 37.75 15.844C38.543 15.348 39.475 14.992 40.464 14.846L41.213 14.774L41.91 14.775C42.183 14.801 42.467 14.827 42.736 14.868C42.986 14.923 43.242 14.967 43.49 15.038C45.494 15.59 47.218 17.062 48.11 18.86C48.564 19.754 48.818 20.718 48.895 21.643L48.924 21.989L48.938 22.258C48.947 22.435 48.956 22.608 48.964 22.78C48.981 23.122 48.998 23.452 49.014 23.77C49.141 26.308 49.226 28 49.226 28H45.226C45.226 28 45.311 26.308 45.438 23.77C45.454 23.453 45.471 23.122 45.488 22.78C45.497 22.609 45.505 22.435 45.514 22.258L45.527 21.993L45.529 21.798C45.543 21.273 45.461 20.713 45.254 20.164C44.851 19.066 43.907 18.037 42.675 17.551C42.522 17.488 42.362 17.448 42.205 17.391L41.781 17.286L41.468 17.254L41.311 17.238L41.233 17.23L41.194 17.226L41.174 17.224C41.198 17.224 41.105 17.222 41.226 17.225H41.218L40.715 17.221C40.047 17.25 39.391 17.422 38.806 17.709C37.628 18.282 36.763 19.302 36.37 20.313C36.26 20.558 36.187 20.824 36.127 21.049C36.076 21.265 36.023 21.487 36.007 21.765C35.947 22.205 35.974 22.61 36.01 22.933C36.049 23.258 36.109 23.51 36.155 23.681C36.207 23.855 36.235 23.948 36.235 23.948L35.031 24.401Z" fill="#3A4D57"/>
<path d="M35.226 28C37.4352 28 39.226 26.2091 39.226 24C39.226 21.7909 37.4352 20 35.226 20C33.0169 20 31.226 21.7909 31.226 24C31.226 26.2091 33.0169 28 35.226 28Z" fill="#3A4D57"/>
<path d="M85.277 46.992C85.277 46.992 85.37 47.02 85.544 47.072C85.715 47.118 85.967 47.178 86.292 47.217C86.614 47.253 87.02 47.28 87.46 47.22C87.738 47.204 87.96 47.151 88.177 47.1C88.402 47.04 88.668 46.967 88.913 46.857C89.923 46.463 90.944 45.599 91.517 44.421C91.804 43.835 91.977 43.18 92.005 42.512L92.001 42.009V42.001C92.004 42.122 92.001 42.029 92.002 42.053L92 42.033L91.996 41.994L91.988 41.916L91.972 41.759L91.94 41.446L91.835 41.022C91.778 40.865 91.738 40.705 91.675 40.552C91.189 39.32 90.16 38.375 89.062 37.972C88.514 37.765 87.954 37.683 87.428 37.696L87.233 37.698L86.968 37.711C86.791 37.72 86.617 37.729 86.446 37.737C86.104 37.754 85.774 37.771 85.456 37.787C82.918 37.914 81.226 37.999 81.226 37.999V33.999C81.226 33.999 82.918 34.084 85.456 34.211C85.773 34.227 86.104 34.244 86.446 34.261C86.617 34.27 86.791 34.278 86.968 34.287L87.237 34.301L87.582 34.33C88.507 34.406 89.471 34.661 90.365 35.115C92.162 36.007 93.635 37.731 94.187 39.735C94.259 39.983 94.302 40.239 94.357 40.49C94.398 40.759 94.425 41.043 94.45 41.316L94.451 42.013L94.379 42.762C94.233 43.751 93.877 44.684 93.381 45.476C92.386 47.073 90.865 48.08 89.472 48.471C89.123 48.582 88.791 48.642 88.451 48.694C88.097 48.739 87.776 48.764 87.537 48.753C86.947 48.768 86.452 48.684 86.046 48.597C85.642 48.506 85.335 48.399 85.13 48.321C84.931 48.239 84.825 48.195 84.825 48.195L85.277 46.992Z" fill="#3A4D57"/>
<path d="M85.226 52C87.4352 52 89.226 50.2091 89.226 48C89.226 45.7909 87.4352 44 85.226 44C83.0169 44 81.226 45.7909 81.226 48C81.226 50.2091 83.0169 52 85.226 52Z" fill="#3A4D57"/>
<path d="M84.824 23.805C84.824 23.805 84.93 23.761 85.129 23.679C85.335 23.601 85.641 23.493 86.045 23.403C86.45 23.316 86.946 23.232 87.536 23.247C87.775 23.236 88.096 23.262 88.45 23.306C88.79 23.358 89.122 23.418 89.471 23.529C90.864 23.92 92.385 24.928 93.38 26.524C93.876 27.317 94.232 28.249 94.378 29.238L94.45 29.987L94.449 30.684C94.423 30.957 94.397 31.241 94.356 31.51C94.301 31.761 94.257 32.016 94.186 32.265C93.634 34.268 92.162 35.993 90.364 36.885C89.47 37.339 88.506 37.593 87.581 37.67L87.236 37.699L86.967 37.713C86.79 37.722 86.616 37.731 86.445 37.739C86.103 37.756 85.773 37.773 85.455 37.789C82.917 37.916 81.225 38.001 81.225 38.001V34.001C81.225 34.001 82.917 34.086 85.455 34.213C85.772 34.229 86.103 34.246 86.445 34.263C86.616 34.272 86.79 34.28 86.967 34.289L87.232 34.302L87.427 34.304C87.953 34.318 88.512 34.236 89.061 34.028C90.159 33.625 91.188 32.681 91.674 31.448C91.737 31.296 91.777 31.135 91.834 30.978L91.939 30.554L91.971 30.241L91.987 30.084L91.995 30.006L91.999 29.967L92.001 29.947C92.001 29.972 92.003 29.878 92 29.999V29.991L92.004 29.488C91.975 28.82 91.803 28.165 91.516 27.579C90.943 26.401 89.923 25.536 88.912 25.143C88.667 25.033 88.401 24.96 88.176 24.9C87.96 24.849 87.737 24.796 87.459 24.78C87.019 24.72 86.614 24.747 86.291 24.783C85.966 24.822 85.714 24.882 85.543 24.928C85.369 24.98 85.276 25.008 85.276 25.008L84.824 23.805Z" fill="#3A4D57"/>
<path d="M85.226 28C87.4352 28 89.226 26.2091 89.226 24C89.226 21.7909 87.4352 20 85.226 20C83.0169 20 81.226 21.7909 81.226 24C81.226 26.2091 83.0169 28 85.226 28Z" fill="#3A4D57"/>
<path d="M9.62701 48.195C9.62701 48.195 9.52102 48.239 9.32202 48.321C9.11602 48.399 8.81 48.507 8.405 48.597C7.999 48.684 7.504 48.768 6.914 48.753C6.675 48.764 6.354 48.738 6 48.694C5.66 48.642 5.328 48.582 4.979 48.471C3.586 48.08 2.06401 47.072 1.07001 45.476C0.574007 44.683 0.218021 43.751 0.0720215 42.762L0 42.013L0.00100708 41.316C0.0270071 41.043 0.0529941 40.759 0.0939941 40.49C0.148994 40.239 0.193008 39.984 0.264008 39.735C0.816008 37.732 2.289 36.007 4.086 35.115C4.98 34.661 5.94402 34.407 6.86902 34.33L7.215 34.301L7.48401 34.287C7.66001 34.278 7.834 34.269 8.005 34.261C8.347 34.244 8.677 34.227 8.995 34.211C11.533 34.084 13.225 33.999 13.225 33.999V37.999C13.225 37.999 11.533 37.914 8.995 37.787C8.678 37.771 8.347 37.754 8.005 37.737C7.834 37.728 7.66001 37.72 7.48401 37.711L7.21899 37.698L7.02402 37.696C6.49902 37.682 5.93901 37.764 5.39001 37.972C4.29201 38.375 3.26301 39.319 2.77701 40.552C2.71401 40.704 2.674 40.865 2.617 41.022L2.51199 41.446L2.48001 41.759L2.46402 41.916L2.45599 41.994L2.452 42.033L2.45001 42.053C2.45001 42.028 2.44802 42.122 2.45102 42.001V42.009L2.44702 42.512C2.47602 43.18 2.648 43.835 2.935 44.421C3.508 45.599 4.528 46.464 5.539 46.857C5.784 46.967 6.04999 47.04 6.27499 47.1C6.49099 47.151 6.713 47.204 6.991 47.22C7.431 47.28 7.836 47.253 8.159 47.217C8.484 47.178 8.73601 47.118 8.90701 47.072C9.08101 47.02 9.17401 46.992 9.17401 46.992L9.62701 48.195Z" fill="#3A4D57"/>
<path d="M9.22601 52C11.4352 52 13.226 50.2091 13.226 48C13.226 45.7909 11.4352 44 9.22601 44C7.01687 44 5.22601 45.7909 5.22601 48C5.22601 50.2091 7.01687 52 9.22601 52Z" fill="#3A4D57"/>
<path d="M9.17502 25.008C9.17502 25.008 9.08202 24.98 8.90802 24.928C8.73802 24.882 8.485 24.822 8.16 24.783C7.838 24.747 7.432 24.72 6.992 24.78C6.714 24.796 6.492 24.849 6.276 24.9C6.051 24.96 5.78501 25.033 5.54001 25.143C4.53001 25.537 3.509 26.401 2.936 27.579C2.649 28.165 2.477 28.82 2.448 29.488L2.452 29.991V29.999C2.449 29.878 2.45202 29.971 2.45102 29.947L2.453 29.967L2.457 30.006L2.465 30.084L2.48102 30.241L2.513 30.554L2.61801 30.978C2.67501 31.135 2.71502 31.295 2.77802 31.448C3.26402 32.68 4.29302 33.625 5.39102 34.028C5.93902 34.235 6.49899 34.317 7.02499 34.304L7.22 34.302L7.48502 34.289C7.66102 34.28 7.83501 34.271 8.00601 34.263C8.34801 34.246 8.678 34.229 8.996 34.213C11.534 34.086 13.226 34.001 13.226 34.001V38.001C13.226 38.001 11.534 37.916 8.996 37.789C8.679 37.773 8.34801 37.756 8.00601 37.739C7.83501 37.73 7.66102 37.722 7.48502 37.713L7.216 37.699L6.87 37.67C5.945 37.594 4.98101 37.339 4.08701 36.885C2.29001 35.993 0.818015 34.269 0.265015 32.265C0.193015 32.017 0.150001 31.761 0.0950012 31.51C0.0540012 31.241 0.0280142 30.957 0.00201416 30.684L0.00100708 29.987L0.072998 29.238C0.218998 28.249 0.575014 27.316 1.07101 26.524C2.06601 24.927 3.58701 23.92 4.98001 23.529C5.32901 23.418 5.66101 23.358 6.00101 23.306C6.35501 23.261 6.67601 23.236 6.91501 23.247C7.50501 23.232 8.00001 23.316 8.40601 23.403C8.81001 23.494 9.117 23.601 9.323 23.679C9.522 23.761 9.62802 23.805 9.62802 23.805L9.17502 25.008Z" fill="#3A4D57"/>
<path d="M9.22601 28C11.4352 28 13.226 26.2091 13.226 24C13.226 21.7909 11.4352 20 9.22601 20C7.01687 20 5.22601 21.7909 5.22601 24C5.22601 26.2091 7.01687 28 9.22601 28Z" fill="#3A4D57"/>
<path d="M59.42 47.599C59.42 47.599 59.464 47.705 59.546 47.904C59.624 48.11 59.732 48.416 59.822 48.821C59.909 49.226 59.993 49.722 59.978 50.312C59.989 50.551 59.963 50.872 59.919 51.226C59.867 51.566 59.807 51.898 59.696 52.247C59.305 53.64 58.297 55.162 56.701 56.156C55.909 56.652 54.976 57.008 53.987 57.154L53.238 57.226L52.541 57.225C52.268 57.199 51.984 57.173 51.715 57.132C51.464 57.077 51.209 57.033 50.961 56.962C48.957 56.41 47.233 54.938 46.341 53.14C45.887 52.246 45.632 51.282 45.556 50.357L45.527 50.011L45.513 49.742C45.504 49.565 45.495 49.392 45.487 49.22C45.47 48.878 45.453 48.548 45.437 48.23C45.31 45.692 45.225 44 45.225 44H49.225C49.225 44 49.14 45.692 49.013 48.23C48.997 48.547 48.98 48.878 48.963 49.22C48.954 49.391 48.946 49.565 48.937 49.742L48.924 50.007L48.922 50.202C48.908 50.727 48.99 51.287 49.198 51.836C49.601 52.934 50.545 53.963 51.777 54.449C51.929 54.512 52.09 54.552 52.247 54.609L52.671 54.714L52.984 54.746L53.141 54.762L53.219 54.77L53.258 54.774L53.278 54.776C53.254 54.776 53.347 54.778 53.226 54.775H53.234L53.737 54.779C54.405 54.75 55.061 54.578 55.646 54.291C56.824 53.718 57.688 52.698 58.082 51.687C58.192 51.442 58.265 51.176 58.325 50.951C58.376 50.735 58.429 50.513 58.445 50.235C58.505 49.795 58.478 49.39 58.442 49.067C58.403 48.742 58.343 48.49 58.297 48.319C58.245 48.145 58.217 48.052 58.217 48.052L59.42 47.599Z" fill="#3A4D57"/>
<path d="M59.226 52C61.4352 52 63.226 50.2091 63.226 48C63.226 45.7909 61.4352 44 59.226 44C57.0169 44 55.226 45.7909 55.226 48C55.226 50.2091 57.0169 52 59.226 52Z" fill="#3A4D57"/>
<path d="M36.233 48.051C36.233 48.051 36.205 48.144 36.153 48.318C36.107 48.489 36.047 48.741 36.008 49.066C35.972 49.388 35.945 49.794 36.005 50.234C36.021 50.512 36.074 50.734 36.125 50.95C36.185 51.175 36.258 51.441 36.368 51.686C36.762 52.696 37.626 53.717 38.804 54.29C39.39 54.577 40.045 54.75 40.713 54.778L41.216 54.774H41.224C41.103 54.777 41.196 54.774 41.172 54.775L41.192 54.773L41.231 54.769L41.309 54.761L41.466 54.745L41.779 54.713L42.203 54.608C42.36 54.551 42.52 54.511 42.673 54.448C43.905 53.962 44.85 52.933 45.252 51.835C45.459 51.287 45.541 50.727 45.527 50.201L45.525 50.006L45.512 49.741C45.503 49.564 45.494 49.391 45.486 49.219C45.469 48.877 45.452 48.547 45.436 48.229C45.309 45.691 45.224 43.999 45.224 43.999H49.224C49.224 43.999 49.139 45.691 49.012 48.229C48.996 48.546 48.979 48.877 48.962 49.219C48.953 49.39 48.945 49.564 48.936 49.741L48.922 50.01L48.893 50.356C48.817 51.281 48.562 52.245 48.108 53.139C47.216 54.936 45.492 56.409 43.488 56.961C43.24 57.033 42.984 57.076 42.734 57.131C42.465 57.172 42.181 57.198 41.908 57.224L41.211 57.225L40.462 57.153C39.473 57.007 38.541 56.651 37.748 56.155C36.152 55.16 35.144 53.639 34.753 52.246C34.642 51.897 34.582 51.565 34.53 51.225C34.485 50.871 34.46 50.55 34.471 50.311C34.456 49.721 34.54 49.226 34.627 48.82C34.718 48.416 34.825 48.109 34.903 47.903C34.985 47.704 35.029 47.598 35.029 47.598L36.233 48.051Z" fill="#3A4D57"/>
<path d="M35.226 52C37.4352 52 39.226 50.2091 39.226 48C39.226 45.7909 37.4352 44 35.226 44C33.0169 44 31.226 45.7909 31.226 48C31.226 50.2091 33.0169 52 35.226 52Z" fill="#3A4D57"/>
<path d="M63.226 40C61.017 40 59.226 38.209 59.226 36C59.226 33.791 61.017 32 63.226 32C65.435 32 67.226 33.791 67.226 36C67.226 38.209 65.435 40 63.226 40Z" fill="#3A4D57"/>
<path d="M31.226 40C29.017 40 27.226 38.209 27.226 36C27.226 33.791 29.017 32 31.226 32C33.435 32 35.226 33.791 35.226 36C35.226 38.209 33.435 40 31.226 40Z" fill="#3A4D57"/>
<path d="M47.226 100C51.6443 100 55.226 96.4183 55.226 92C55.226 87.5817 51.6443 84 47.226 84C42.8077 84 39.226 87.5817 39.226 92C39.226 96.4183 42.8077 100 47.226 100Z" fill="#3A4D57"/>
<path d="M43.226 142H37.226C36.121 142 35.226 141.105 35.226 140C35.226 138.895 36.121 138 37.226 138H43.226V142Z" fill="#3A4D57"/>
</svg>
