<?xml version="1.0" encoding="utf-8"?>
<!-- Generator: Adobe Illustrator 27.5.0, SVG Export Plug-In . SVG Version: 6.00 Build 0)  -->
<svg version="1.1" xmlns="http://www.w3.org/2000/svg" xmlns:xlink="http://www.w3.org/1999/xlink" x="0px" y="0px"
	 viewBox="0 0 500 500" style="enable-background:new 0 0 500 500;" xml:space="preserve">
<g id="Background_Simple">
	<g>
		<path style="fill:#92E3A9;" d="M416.954,72.433c-10.454-6.268-21.766-10.963-33.513-14.218
			C344.36,47.388,203.223,9.333,189.414,20.512C173.368,33.501,26.665,203.127,33.542,223.758
			c6.877,20.63,78.7,232.281,97.038,239.158c18.338,6.877,305.633-77.936,320.15-84.049c14.517-6.113,0-264.372-9.933-284.238
			C436.382,85.798,426.534,78.176,416.954,72.433z"/>
		<path style="opacity:0.7;fill:#FFFFFF;" d="M416.954,72.433c-10.454-6.268-21.766-10.963-33.513-14.218
			C344.36,47.388,203.223,9.333,189.414,20.512C173.368,33.501,26.665,203.127,33.542,223.758
			c6.877,20.63,78.7,232.281,97.038,239.158c18.338,6.877,305.633-77.936,320.15-84.049c14.517-6.113,0-264.372-9.933-284.238
			C436.382,85.798,426.534,78.176,416.954,72.433z"/>
	</g>
</g>
<g id="Plasma">
	<g>
		<path style="fill:#92E3A9;" d="M132.906,430.536c0,0-37.99-18.131-53.531-56.121c-15.541-37.99-3.454-70.799-3.454-70.799
			s-19.858,31.946-16.405,70.799C62.97,413.268,132.906,430.536,132.906,430.536z"/>
		<path style="fill:#92E3A9;" d="M37.068,328.655c0,0-3.454-45.76,29.355-88.93c32.809-43.17,126.479-59.656,178.072-73.861
			c51.593-14.206,67.134-78.961,60.227-106.589c0,0,24.175,68.209-10.361,115.696c-34.536,47.487-163.182,46.623-203.762,75.979
			C50.019,280.304,37.068,328.655,37.068,328.655z"/>
		<path style="fill:#92E3A9;" d="M20.664,206.915c0,0,17.221-50.826,70.799-97.564C91.462,109.351,37.932,120.575,20.664,206.915z"
			/>
		<path style="fill:#92E3A9;" d="M334.941,289.802c0,0,59.574,12.951,107.061-19.858c47.487-32.809,43.17-95.837,35.399-128.647
			c-7.771-32.809-38.853-54.394-38.853-54.394s18.995,20.722,24.175,75.116C467.905,216.413,442.866,284.621,334.941,289.802z"/>
	</g>
</g>
<g id="Ghost_3">
	<g>
		<path style="fill:#263238;stroke:#263238;stroke-miterlimit:10;" d="M189.535,343.429c0,0,3.97,9.161,1.832,12.52
			c-2.137,3.359-3.664,3.664-7.939,1.527c-4.275-2.138-8.55-4.886-8.55-4.886s3.054,6.107,3.359,8.245
			c0.305,2.138,0.305,3.664,0.305,3.664s-4.58-5.802-7.634-6.107c-3.054-0.305-5.497-2.443-5.497-2.443s0.305,3.664,0.611,7.329
			c0.305,3.664,1.527,8.245,1.527,8.245l-7.329-8.55c0,0-0.305,14.657,2.443,29.62c2.748,14.963,13.741,29.315,17.406,35.117
			c3.664,5.802,5.496,14.657,5.191,16.184c-0.305,1.527-2.443,7.329-5.802,8.855s-7.634,2.443-6.718,3.359
			c0.916,0.916,1.832,4.275,1.832,4.275s-7.023,6.107-9.772,7.634c-2.748,1.527-3.054,0-2.748,1.527
			c0.305,1.527,4.275,9.466,9.161,12.825c4.886,3.359,8.855,5.497,8.855,5.497s-7.939-10.382-6.413-13.741
			c1.527-3.359,5.191-7.329,5.191-7.329s1.832,6.107,1.221,8.855c-0.611,2.748-0.611,2.748-0.611,2.748s4.58,3.359,6.413,4.886
			c1.832,1.527,3.054,3.664,7.329,5.191c4.275,1.527,10.077,1.221,10.077,1.221s-8.245-9.466-12.825-15.574
			c-4.58-6.107-6.413-13.13-4.275-14.963c2.138-1.832,5.802-6.107,7.023,0.305c1.221,6.413,4.886,14.963,6.107,17.1
			c1.221,2.138,5.191,4.275,7.939,4.886c2.748,0.611,11.909-1.527,11.909-1.527s-10.382-7.329-12.825-9.161
			c-2.443-1.832-5.191-12.52-4.275-15.268c0.916-2.748,8.55-10.077,8.55-10.077s8.856,0,12.825,1.832
			c3.97,1.832,6.413,8.855,6.413,8.855s2.138-7.634-0.611-12.825c-2.748-5.191-13.131-10.382-14.047-9.161
			c-0.916,1.221-0.611,3.664-5.802,4.886c-5.191,1.221-9.772,0.305-11.298-1.221c-1.527-1.527-5.497-23.818-6.718-32.063
			c-1.221-8.245,6.413-24.734,13.436-29.926c7.023-5.191,19.543-7.939,21.986-6.413s7.634,17.1,11.298,28.093
			c3.664,10.993,7.023,22.292,13.131,26.566c6.107,4.275,17.406,13.131,17.406,13.131s8.855-9.772,16.49-21.986
			c7.634-12.214,5.191-14.352,10.993-23.818c5.802-9.466,10.077-21.07,13.741-25.345c3.664-4.275,6.413-12.214,8.245-19.543
			c1.832-7.329,0.611-9.772,0.611-9.772l-3.97,2.138c0,0-1.527-10.688-3.359-18.627c-1.832-7.94-4.275-16.49-4.275-16.49
			s6.107-3.054,12.215-11.909c6.107-8.855,10.077-9.772,14.352-10.077c4.275-0.305,25.04,19.849,32.674,26.566
			c7.634,6.718,4.886,16.184,4.275,19.238c-0.611,3.054-1.832,4.58-3.664,5.497c-1.832,0.916-4.58,2.443-5.497,1.527
			c-0.916-0.916,3.359,7.329,5.497,12.52c2.138,5.191,5.496,7.329,5.496,7.329s-3.054-10.993-0.611-14.657
			c2.443-3.664,12.825-8.245,12.825-8.245s0.916,4.58,1.221,7.329c0.305,2.748-0.305,7.634-1.832,9.466
			c-1.527,1.832-4.58,3.664-4.58,3.664s8.245-1.221,9.161-2.443c0.916-1.221,3.97-12.825,3.97-12.825s4.886,7.939,4.886,11.298
			s-3.359,10.993-4.275,11.909c-0.916,0.916,7.023-5.802,8.855-10.382c1.832-4.58,2.443-7.634,2.443-7.634s-4.581-3.359-4.886-6.107
			c-0.305-2.748,0.305-7.329,1.832-7.634c1.527-0.305,7.939,7.023,8.245,9.466c0.305,2.443-2.137,11.298-2.137,11.298
			s8.245-13.436,8.55-15.574c0.305-2.137,0.305-2.137,0.305-2.137s-4.886-2.443-5.802-4.886s-5.496-11.604-5.496-11.604
			s-12.215,7.023-15.268,6.718c-3.054-0.305-8.855-3.054-9.161-5.496c-0.305-2.443-19.238-34.201-19.238-34.201
			s-14.657-16.184-18.322-21.986c-3.664-5.802-12.215-13.131-16.184-14.963c-3.97-1.832,2.137,9.161,2.137,9.161
			s-9.772-3.359-12.52-3.97c-2.748-0.611-5.802-0.916-5.802-0.916l4.886,5.497c0,0-14.047-2.138-15.268-1.832
			c-1.221,0.305,6.718,5.497,7.023,7.023c0.305,1.527,0.305,4.581-1.221,5.802c-1.527,1.222-7.023,5.191-11.604,6.718
			c-4.581,1.527-8.362-3.799-9.584-3.799c-1.221,0-0.916-5.191-9.772-10.688c-8.855-5.497-16.655-11.06-16.655-11.06
			s1.221,3.054-2.138,3.97c-3.359,0.916-9.466-6.107-14.963-9.466c-5.497-3.359-11.909-4.886-17.1-5.191
			c-5.191-0.305-9.772,0.611-9.772,0.611s4.275,2.748,1.221,3.664c-3.054,0.916-7.774,4.952-16.019,2.204
			c-8.245-2.748-12.214-3.97-18.322-3.359c-6.107,0.611-12.215,3.664-12.215,3.664l4.58,4.275c0,0-12.214,0-17.711,2.748
			c-5.496,2.748-10.077,12.214-11.604,14.047c-1.527,1.832-19.759,13.636-21.896,22.186c-2.138,8.55-3.026,16.424-5.469,20.699
			c-2.443,4.275-9.223,8.125-9.528,19.728c-0.305,11.604-0.854,21.19-0.854,21.19l1.222-8.245c0,0,1.527,11.604,2.443,14.352
			c0.916,2.748,3.054,5.802,3.054,5.802l1.832-10.382c0,0,0.305,14.963,6.107,19.849c5.802,4.886,14.963,9.466,14.963,9.466
			s-1.832-17.711,1.221-24.429c3.054-6.718,6.107-10.993,6.107-10.993l-0.305,7.329c0,0,16.49-15.879,29.315-17.406
			S189.535,343.429,189.535,343.429z"/>
		<path style="fill:#263238;stroke:#263238;stroke-miterlimit:10;" d="M233.628,357.046c0,0-1.228,2.457-0.614,5.834
			c0.614,3.378,2.764,6.755,2.764,6.755l3.992-3.992c0,0,0.614,5.527,2.149,8.291c1.535,2.763,3.685,4.913,3.685,4.913l3.992-4.913
			c0,0,2.149,6.448,2.764,8.598c0.614,2.149,3.685,4.913,3.685,4.913l3.685-4.913c0,0,4.913,6.755,7.062,8.598
			c2.149,1.842,8.598,6.448,8.598,6.448l17.502-15.046v5.527c0,0,8.905-8.291,11.054-10.44c2.149-2.149,5.527-6.448,5.527-6.448
			l0.614,2.764c0,0,3.071-6.141,4.299-10.747c1.228-4.606-1.842-15.046-1.842-15.046"/>
		<path style="fill:#92E3A9;stroke:#263238;stroke-miterlimit:10;" d="M275.387,397.578c0,0-6.448-4.606-8.598-6.448
			c-2.149-1.842-7.062-8.598-7.062-8.598l-3.685,4.913c0,0-3.071-2.764-3.685-4.913c-0.614-2.149-2.764-8.598-2.764-8.598
			l-3.992,4.913c0,0-2.149-2.149-3.685-4.913c-1.535-2.764-2.149-8.291-2.149-8.291l-3.735,3.735
			c0.31,3.996,0.994,9.51,2.506,14.382l3.378-0.614c0,0-1.228,6.448-0.614,7.983c0.614,1.535,2.764,6.141,2.764,6.141l3.378-4.606
			c0,0-0.307,7.369-0.307,9.212c0,1.842,3.378,11.054,3.378,11.054l2.764-5.527c0,0,1.535,7.676,2.149,8.905
			c0.614,1.228,5.834,6.141,5.834,6.141l0.614-5.22c0,0,4.299,6.448,5.527,7.062c1.228,0.614,2.763,0,3.378-1.228
			c0.614-1.228,4.606-7.369,4.606-7.369v4.913c0,0,5.527-9.826,5.834-10.747c0.307-0.921,3.071-7.676,3.071-7.676l0.307,4.606
			c0,0,1.842-7.062,1.842-8.905c0-1.842-0.307-4.606-0.307-4.606h2.15c0,0,1.228-5.22,1.535-6.755
			c0.065-0.323,0.115-0.855,0.155-1.486L275.387,397.578z"/>
		<path style="opacity:0.5;fill:#FFFFFF;" d="M274.273,399.747c0,0-4.971-3.309-6.628-4.632c-1.657-1.323-5.444-6.176-5.444-6.176
			l-2.84,3.529c0,0-4.044-1.165-4.518-2.709c-0.473-1.544-4.26-6.476-4.26-6.476l-0.17,3.919c0,0-0.756-2.455-1.94-4.44
			c-1.184-1.985-2.339-1.651-2.339-1.651l-2.879,2.683c0.239,2.871,1.448,2.527,2.614,6.026l2.604-0.441c0,0,0.615,4.73,1.088,5.832
			c0.473,1.103,0.569,4.314,0.569,4.314l2.604-3.309c0,0-0.237,5.294-0.237,6.617s2.604,7.94,2.604,7.94l2.13-3.97
			c0,0,1.184,5.514,1.657,6.396c0.473,0.882,4.497,4.411,4.497,4.411l0.473-3.75c0,0,3.314,4.632,4.261,5.073
			c0.947,0.441,2.13,0,2.604-0.882c0.473-0.882,3.551-5.294,3.551-5.294v3.529c0,0,4.261-7.058,4.497-7.72
			c0.237-0.662,2.367-5.514,2.367-5.514l0.237,3.309c0,0,1.42-5.073,1.42-6.396s-0.237-3.308-0.237-3.308h1.657
			c0,0,0.947-3.75,1.183-4.852c0.05-0.232,0.089-0.615,0.12-1.067L274.273,399.747z"/>
		<path style="fill:#FFFFFF;" d="M276.997,399.814l-3.92,1.363c0,0-10.225-6.987-10.566-5.794
			c-0.341,1.193,7.839,11.588,10.225,10.906C275.122,405.608,276.997,399.814,276.997,399.814z"/>
		<path style="fill:#92E3A9;stroke:#263238;stroke-miterlimit:10;" d="M266.483,361.038c0,0-2.764-9.826-8.291-13.818
			c-5.527-3.992-17.809-7.062-17.809-7.062s-0.921,8.598,4.606,14.125C250.516,359.81,266.483,361.038,266.483,361.038z"/>
		<path style="fill:#92E3A9;stroke:#263238;stroke-miterlimit:10;" d="M292.276,361.345c0,0,0.828-0.552,2.068-1.455
			c3.098-2.256,8.767-6.705,10.522-10.213c2.456-4.913,3.685-9.826,3.685-9.826s-0.921,11.668-1.842,15.967
			S292.276,361.345,292.276,361.345z"/>
	</g>
</g>
<g id="Ghost_2">
	<g>
		<path style="fill:#263238;stroke:#263238;stroke-miterlimit:10;" d="M312.775,131.632c0,0-27.876,3.771-35.372,8.146
			c-7.496,4.375-16.013,12.599-18.082,12.903c-2.069,0.303-4.13-5.101-3.876-8.415c0.254-3.313,0.254-3.313,0.254-3.313
			s-14.788,0.055-19.564,4.242c-4.776,4.188-8.294,12.63-8.294,12.63s9.494-8.05,12.388-9.214c2.894-1.164,5.998-1.619,5.998-1.619
			s1.49,2.952,2.56,4.486c1.07,1.534,2.025,3.719,2.025,3.719l-8.87,0.772l-3.332-2.996c0,0-5.827,5.396-8.231,11.35
			c-2.403,5.954-3.772,11.756-3.469,13.825c0.303,2.069,1.539,8.335,1.771,7.033s3.62-12.79,4.945-14.57
			c1.324-1.779,4.583-3.477,4.583-3.477s-1.452,10.416,0.154,12.717c1.606,2.301,8.723,7.598,8.723,7.598s-7.183-13.14-5.206-15.422
			c1.976-2.282,5.508-7.027,7.193-7.063s6.837,1.217,6.837,1.217s6.77,7.251,5.981,9.797c-0.789,2.546-8.807,9.852-8.807,9.852
			s10.007-5.272,13.458-7.68c3.452-2.408,6.064-7.653,6.064-7.653l-5.802-1.369c0,0-1.923-8.067-0.808-10.556
			c1.115-2.488,10.216-4.563,14.68-5.112c4.464-0.549,17.067,0.351,17.067,0.351L312.775,131.632z"/>
		<path style="fill:#263238;stroke:#263238;stroke-miterlimit:10;" d="M307.811,133.1c0,0,6.296-8.955,13.221-15.783
			c6.925-6.828,23.465-12.952,23.465-12.952l-6.202,10.315c0,0,19.296-4.626,22.668-4.698c3.371-0.072,11.358,0.343,11.358,0.343
			l-8.539,10.235c0,0,20.055,0.547,21.892,1.546s22.477,7.695,22.477,7.695l-11.974,1.227c0,0,7.421,7.367,13.309,15.803
			c5.887,8.437,20.553,39.26,18.935,57.781s-10.75,28.314-10.75,28.314l-0.121-8.754c0,0-5.648,24.184-18.665,31.272
			c-13.017,7.087-24.665,8.372-24.665,8.372l6.715-7.537c0,0-10.81,4.121-23.412,3.222c0,0,10.92-14.178,5.461-26.905
			c-5.459-12.727-30.345-23.874-30.345-23.874l0.549,4.464c0,0-22.426-9.755-35.192-23.057
			C283.86,175.399,291.762,144.013,307.811,133.1z"/>
		<g>
			<path style="fill:#92E3A9;stroke:#263238;stroke-miterlimit:10;" d="M310.574,189.332c0,0-3.349,3.034,2.392,7.585
				c5.741,4.551,14.83,6.573,14.83,6.573L310.574,189.332z"/>
			<path style="fill:#92E3A9;stroke:#263238;stroke-miterlimit:10;" d="M314.401,186.804c0,0,3.827,7.585,17.7,13.652
				c13.873,6.068,18.657,9.607,13.395-1.011s-20.571-17.697-25.355-18.203C315.358,180.736,308.66,176.691,314.401,186.804z"/>
			<path style="fill:#92E3A9;stroke:#263238;stroke-miterlimit:10;" d="M339.277,185.793c0,0,4.305,8.09,11.481,16.686
				s7.654-5.562,3.827-11.63C350.758,184.781,340.234,170.118,339.277,185.793z"/>
			<path style="fill:#92E3A9;stroke:#263238;stroke-miterlimit:10;" d="M356.021,185.793c0,0,1.914,11.124,6.697,16.181
				C367.502,207.03,364.632,182.759,356.021,185.793z"/>
		</g>
		<path style="fill:#92E3A9;stroke:#263238;stroke-miterlimit:10;" d="M331.622,159.855c-0.656,3.686,1.8,7.206,5.486,7.862
			s7.206-1.8,7.862-5.486c0.656-3.686-1.8-7.206-5.486-7.862C335.797,153.713,332.278,156.169,331.622,159.855z"/>
		<path style="fill:#92E3A9;stroke:#263238;stroke-miterlimit:10;" d="M299.681,158.018c-0.656,3.686,1.8,7.206,5.486,7.862
			c3.686,0.656,7.206-1.8,7.862-5.486c0.656-3.686-1.8-7.206-5.486-7.862C303.857,151.876,300.338,154.332,299.681,158.018z"/>
		<path style="fill:#263238;stroke:#263238;stroke-miterlimit:10;" d="M397.232,168.497c0,0,16.835,1.653,21.95,1.22
			c5.115-0.433,8.928-1.098,11.439-1.994c2.511-0.896-2.899-8.241-2.899-8.241l8.362,5.855c0,0-2.235-4.428-3.724-7.38
			c-1.49-2.952,2.685-1.873,15.422,11.478c12.737,13.351,14.486,22.395,17.899,33.414c3.412,11.019,4.204,32.991,4.204,32.991
			s1.815,3.01,7.827,5.088c6.012,2.078,9.347,0.32,9.347,0.32s6.03,15.18,5.219,19.738c-0.811,4.558-1.449,8.139-1.449,8.139
			s-2.19-8.451-3.354-11.345c-1.164-2.894-10.771-9.306-10.771-9.306l8.216,14.225c0,0-0.522,2.93-3.879,6.698
			c-3.358,3.769-9.784,9.678-9.784,9.678s3.143-13.883,3.187-17.905c0.044-4.022-6.971-13.668-6.971-13.668
			s-0.82,10.266-2.108,13.731c-1.288,3.465-15.527,7.984-15.527,7.984l-4.674-0.16c0,0,11.425-5.691,12.54-8.18
			c1.115-2.488,0.048-19.136-0.965-20.996c-1.012-1.859-13.022-2.318-13.022-2.318s-3.857,4.687-3.785,8.059
			c0.072,3.371-1.076-10.939-0.264-15.497c0.811-4.558,3.344-7.465,3.344-7.465l1.178,6.591c0,0,9.254-1.04,11.381-1.669
			c2.127-0.629,4.927-3.153,4.927-3.153S446.294,191,443.27,189.119c-3.024-1.882-23.903-1.568-32.737,0.89"/>
	</g>
</g>
<g id="Ghost_1">
	<g>
		<path style="fill:#263238;stroke:#263238;stroke-miterlimit:10;" d="M283.492,55.755c-0.91-3.288-3.244-13.853-3.244-13.853
			l-1.928,11.154c0,0-0.986-3.562-2.52-6.973c-1.534-3.41-2.963-5.375-2.963-5.375s0.724,6.88,0.48,8.128
			c-0.245,1.248-0.646,7.259-2.686,8.414c-2.04,1.155-20.703,5.141-23.397,5.001c-2.694-0.139-5.61-6.412-4.585-12.301
			c1.025-5.889,6.248-9.4,6.248-9.4s-2.496-0.489-6.606,0.648c-4.11,1.138-12.167,7.203-12.167,7.203s3.102,2.681,5.336,6.488
			c2.234,3.807,0.079,14.139,0.874,26.604c0.795,12.465-16.604,33.802-16.604,33.802s-1.387,2.449-6.804,0.998
			c-4.215-1.129-13.161-8.432-17.074-12.139c-2.177-5.821-4.416-11.639-6.427-16.546c-7.108-17.343-7.108-17.343-7.108-17.343
			s4.265-5.686,3.127-12.51c-1.137-6.824-7.961-8.814-7.961-8.814s-0.569,11.942-5.686,12.794c0,0-12.794-11.373-27.295-11.657
			c-14.5-0.284-27.01,10.52-31.56,16.491c-4.549,5.971-6.255,13.079-6.255,13.079s-7.677,1.99-10.236,0.569
			c-2.559-1.422-3.98-4.549-3.98-4.549s-3.981,11.373,0,13.647c3.98,2.274,14.5,3.696,14.5,3.696s1.422,30.422,1.137,35.256
			s-1.137,6.539-1.137,7.677c0,1.137-9.667,15.922-14.5,18.765c-4.833,2.843-6.824,0.853-6.824,0.853s-22.461-15.922-25.02-28.148
			c-2.559-12.226-7.392-21.608-6.255-25.873s3.412-7.677,3.412-7.677s-9.382-3.696-13.647-3.696s-6.54,1.137-6.54,1.137
			s5.971,1.99,8.53,7.392c2.559,5.402,1.422,12.226-1.137,13.079c-2.559,0.853-21.608,1.99-23.883,1.422
			c-2.274-0.569-4.265-6.255-4.833-7.392c-0.569-1.137-1.706-7.961-1.706-7.961s-0.853,2.275-1.422,5.971
			c-0.569,3.696-0.569,7.392-0.569,7.392l-4.834-10.236c0,0,0.569,10.804,0.569,14.216c0,3.412,3.128,13.648,3.128,13.648
			l5.402-3.696c0,0,1.421,4.549,6.539,7.108s6.255,4.549,6.255,4.549s8.53-9.098,12.51-10.235c3.98-1.137,11.089,1.137,11.941,2.559
			c0.853,1.422,11.373,28.148,17.059,37.815c5.686,9.667,17.343,16.775,17.343,16.775l1.422-7.108l3.412,5.686
			c0,0,3.128-5.686,10.804-10.804s11.941-9.951,11.941-9.951s2.274,14.5,10.804,27.01c8.53,12.51,8.53,12.51,8.53,12.51
			s0.853-6.255,0.284-9.951c-0.569-3.696-1.706-7.108-1.706-7.108s12.51,14.5,15.353,20.755c2.843,6.255,4.265,10.804,4.265,10.804
			l10.236-10.236c0,0,1.137,5.971,0.569,15.638c-0.569,9.667-0.569,9.667-0.569,9.667s21.324-21.324,27.579-33.55
			c6.255-12.226,5.686-20.187,5.686-20.187l2.843,14.216c0,0,6.255-17.344,7.392-26.442c0.924-7.395-0.217-23.241-0.677-28.916
			c8.433,2.893,12.801,7.357,12.801,7.357l1.771-6.391l3.266,6.471c0,0,9.338-9.96,12.24-20.794
			c2.901-10.834,5.91-39.397,6.353-40.995c0.443-1.598,6.686-5.686,10.826-5.652c4.14,0.034,14.787,6.527,14.787,6.527
			s0.565-2.221,4.815-6.053c4.25-3.831,4.406-8.595,4.406-8.595l6.192,2.121C284.119,69.742,284.402,59.043,283.492,55.755z"/>
		<path style="fill:#92E3A9;stroke:#263238;stroke-miterlimit:10;" d="M111.806,98.13c0,0-2.274,1.422,1.99,3.981
			c4.265,2.559,4.265,2.559,4.265,2.559l2.559-8.245l5.686,2.843l1.422-11.373l7.392,1.422l0.853-10.235l11.657,5.118l6.255-11.089
			l5.686,7.108l8.53-4.549l3.128,6.824l5.971-6.255c0,0,0.853,9.383-0.569,14.785s-3.696,9.383-3.696,9.383l-2.843-4.549
			l-4.549,17.912l-4.833-4.549c0,0-0.569,7.961-3.412,12.795c-2.843,4.833-10.804-0.569-12.51-2.559
			c-1.706-1.99-3.98-4.265-3.98-4.265l0.569,5.402l-13.647-9.383v4.833C127.728,116.042,116.071,114.336,111.806,98.13z"/>
		<path style="opacity:0.5;fill:#FFFFFF;" d="M123.698,98.258c0,0-1.561,0.976,1.366,2.732c2.927,1.756,2.927,1.756,2.927,1.756
			l1.756-5.659l3.903,1.951l0.976-7.806l5.074,0.976l0.585-7.025l8.001,3.513l4.293-7.611l3.903,4.879l5.854-3.122l2.147,4.683
			l4.098-4.293c0,0,0.585,6.44-0.39,10.147c-0.976,3.708-2.537,6.44-2.537,6.44l-1.951-3.122l-3.122,12.294l-3.317-3.122
			c0,0-0.39,5.464-2.342,8.781c-1.951,3.317-7.415-0.39-8.586-1.756c-1.171-1.366-2.732-2.927-2.732-2.927l0.39,3.708l-9.367-6.44
			v3.317C134.626,110.552,126.625,109.382,123.698,98.258z"/>
		<path style="fill:#FFFFFF;" d="M153.193,93.123c0,0-8.457,2.368-10.487,5.074c-2.03,2.706,4.398,2.03,7.442,1.015
			C153.193,98.197,158.944,92.784,153.193,93.123z"/>
		<path style="fill:#92E3A9;stroke:#263238;stroke-miterlimit:10;" d="M128.581,72.826c0,0-3.412-1.706-8.53,1.137
			c-5.118,2.843-5.686,5.686-5.686,5.686s4.549,1.137,7.108,0.284C124.032,79.081,128.581,72.826,128.581,72.826z"/>
		<path style="fill:#92E3A9;stroke:#263238;stroke-miterlimit:10;" d="M148.768,64.012c0,0,2.559-7.392,8.814-7.108
			c6.255,0.284,6.255,3.696,6.255,3.696S157.298,69.698,148.768,64.012z"/>
	</g>
</g>
</svg>
